<svg width="44" height="48" viewBox="0 0 44 48" fill="none" xmlns="http://www.w3.org/2000/svg">
<g clip-path="url(#clip0_338_505)">
<path d="M21.7524 0C20.5376 0 19.3417 0.318315 18.2911 0.926858L2.21369 10.1908C0.844205 10.9819 0 12.4424 0 14.0199V33.9801C0 35.5623 0.844205 37.0181 2.21369 37.8092L18.2911 47.0731C19.3417 47.677 20.5376 48 21.7524 48C22.9671 48 24.163 47.6817 25.2136 47.0731L41.291 37.8092C42.6605 37.0181 43.5047 35.5576 43.5047 33.9801V14.0199C43.5047 12.4424 42.6605 10.9819 41.291 10.1908L25.2136 0.926858C24.163 0.322996 22.9671 0 21.7524 0Z" fill="url(#paint0_linear_338_505)"/>
<path d="M24.3036 18.7525L30.3998 8L15.5116 21.4694L20.2889 21.4639L14.1557 29.2037L14.4152 29.2092L18.896 29.2475L12.7998 40L27.688 26.5306H22.9054L29.1287 18.6813L24.3036 18.7525Z" fill="#E4E6F1"/>
</g>
<defs>
<linearGradient id="paint0_linear_338_505" x1="58.419" y1="2.37332" x2="-11.4309" y2="43.7257" gradientUnits="userSpaceOnUse">
<stop stop-color="#B800FF"/>
<stop offset="1" stop-color="#4C36BF"/>
</linearGradient>
<clipPath id="clip0_338_505">
<rect width="43.5" height="48" fill="white"/>
</clipPath>
</defs>
</svg>
